<svg width="134" height="53" viewBox="0 0 134 53" fill="none" xmlns="http://www.w3.org/2000/svg">
<rect x="0.5" y="0.5" width="133" height="52" rx="7.5" fill="#B2B2B2"/>
<rect x="0.5" y="0.5" width="133" height="52" rx="7.5" stroke="#001F3F"/>
<path opacity="0.4" d="M12 16.75V28.125C12 29.9176 13.4574 31.375 15.25 31.375H20.125V36.25C20.125 38.0426 21.5824 39.5 23.375 39.5H34.75C36.5426 39.5 38 38.0426 38 36.25V24.875C38 23.0824 36.5426 21.625 34.75 21.625H29.875V16.75C29.875 14.9574 28.4176 13.5 26.625 13.5H15.25C13.4574 13.5 12 14.9574 12 16.75ZM15.25 16.75H26.625V21.625H29.875V24.875H34.75V36.25H23.375V31.375H20.125V28.125H15.25V16.75Z" fill="#001F3F"/>
<path d="M20 24.8333C20 22.9948 21.4948 21.5 23.3333 21.5H30V28.1667C30 30.0052 28.5052 31.5 26.6667 31.5H20V24.8333Z" fill="#001F3F"/>
<path d="M50 38.064C49.3387 38.064 48.848 37.9787 48.528 37.808C48.2293 37.616 48.08 37.3493 48.08 37.008V16.88C48.08 16.0267 48.4747 15.6 49.264 15.6H55.6C58.416 15.6 60.464 16.1547 61.744 17.264C63.0453 18.3733 63.696 19.9413 63.696 21.968C63.696 22.8853 63.5573 23.696 63.28 24.4C63.024 25.104 62.6293 25.7013 62.096 26.192C61.584 26.6827 60.9333 27.0667 60.144 27.344V27.472C60.5067 27.6 60.8693 27.8773 61.232 28.304C61.616 28.7307 61.9147 29.2213 62.128 29.776L64.72 36.24C64.8267 36.4747 64.9013 36.688 64.944 36.88C65.008 37.072 65.04 37.232 65.04 37.36C65.04 37.6373 64.9013 37.8293 64.624 37.936C64.3467 38.0213 63.8667 38.064 63.184 38.064H61.872C61.4027 38.064 60.9973 38.0107 60.656 37.904C60.336 37.776 60.0907 37.5093 59.92 37.104L57.52 31.28C57.3493 30.832 57.136 30.4693 56.88 30.192C56.6453 29.9147 56.3253 29.712 55.92 29.584C55.5147 29.4347 54.96 29.36 54.256 29.36H53.04V37.008C53.04 37.3493 52.8907 37.616 52.592 37.808C52.2933 37.9787 51.8027 38.064 51.12 38.064H50ZM53.04 25.488H55.856C56.8373 25.488 57.5413 25.264 57.968 24.816C58.416 24.368 58.64 23.6427 58.64 22.64C58.64 21.6373 58.416 20.912 57.968 20.464C57.5413 20.016 56.8373 19.792 55.856 19.792H53.04V25.488ZM75.2273 38.256C72.3259 38.256 70.2033 37.488 68.8593 35.952C67.5366 34.3947 66.8753 32.3253 66.8753 29.744C66.8753 27.632 67.2059 25.936 67.8673 24.656C68.5286 23.376 69.4459 22.448 70.6193 21.872C71.7926 21.296 73.1366 21.008 74.6513 21.008C76.3366 21.008 77.6806 21.392 78.6833 22.16C79.6859 22.9067 80.4113 23.8987 80.8593 25.136C81.3286 26.352 81.5633 27.6747 81.5633 29.104C81.5633 29.3813 81.4566 29.68 81.2433 30C81.0513 30.32 80.8166 30.5973 80.5393 30.832C80.2619 31.0453 80.0059 31.152 79.7713 31.152H71.7393C71.7819 32.432 72.1446 33.3173 72.8273 33.808C73.5313 34.2773 74.4059 34.512 75.4513 34.512C76.1766 34.512 76.8166 34.416 77.3713 34.224C77.9473 34.0107 78.4273 33.808 78.8113 33.616C79.2166 33.424 79.5259 33.328 79.7393 33.328C79.9526 33.328 80.1659 33.488 80.3793 33.808C80.5926 34.128 80.7739 34.4907 80.9233 34.896C81.0726 35.28 81.1473 35.5787 81.1473 35.792C81.1473 36.112 80.9339 36.4213 80.5073 36.72C80.1019 37.0187 79.5793 37.2853 78.9393 37.52C78.2993 37.7547 77.6486 37.936 76.9873 38.064C76.3259 38.192 75.7393 38.256 75.2273 38.256ZM71.6753 27.984H77.0513C77.0513 26.9173 76.8379 26.1173 76.4113 25.584C75.9846 25.0293 75.3339 24.752 74.4593 24.752C74.0753 24.752 73.6699 24.8267 73.2433 24.976C72.8166 25.1253 72.4539 25.4347 72.1553 25.904C71.8566 26.352 71.6966 27.0453 71.6753 27.984ZM89.4373 38.256C88.4133 38.256 87.5493 38.0747 86.8453 37.712C86.1626 37.3493 85.6506 36.816 85.3093 36.112C84.9679 35.3867 84.7973 34.5013 84.7973 33.456V14.928C84.7973 14.5867 84.9466 14.3307 85.2453 14.16C85.5653 13.968 86.0666 13.872 86.7493 13.872H87.6453C88.3279 13.872 88.8186 13.968 89.1173 14.16C89.4373 14.3307 89.5973 14.5867 89.5973 14.928V33.136C89.5973 33.6053 89.6719 33.9467 89.8213 34.16C89.9919 34.352 90.2799 34.448 90.6853 34.448C91.0479 34.448 91.3252 34.4053 91.5173 34.32C91.7306 34.2133 91.9119 34.16 92.0613 34.16C92.1893 34.16 92.3066 34.2667 92.4133 34.48C92.5199 34.6933 92.6053 34.96 92.6693 35.28C92.7546 35.5787 92.8186 35.8773 92.8613 36.176C92.9039 36.4533 92.9253 36.6667 92.9253 36.816C92.9253 37.072 92.7439 37.3173 92.3813 37.552C92.0186 37.7653 91.5706 37.936 91.0373 38.064C90.5039 38.192 89.9706 38.256 89.4373 38.256ZM98.3613 38.256C96.6333 38.256 95.4066 37.808 94.6813 36.912C93.9773 35.9947 93.6253 34.8853 93.6253 33.584C93.6253 32.9227 93.7213 32.2507 93.9133 31.568C94.1266 30.864 94.5426 30.2133 95.1613 29.616C95.7799 29.0187 96.6973 28.5387 97.9133 28.176C99.1506 27.8133 100.783 27.632 102.809 27.632V26.672C102.809 26.224 102.724 25.8613 102.553 25.584C102.383 25.3067 102.116 25.104 101.753 24.976C101.391 24.8267 100.911 24.752 100.313 24.752C99.5453 24.752 98.8519 24.8373 98.2333 25.008C97.6359 25.1573 97.1239 25.3173 96.6973 25.488C96.2919 25.6587 95.9826 25.744 95.7693 25.744C95.6199 25.744 95.4706 25.648 95.3213 25.456C95.1719 25.2427 95.0333 24.9973 94.9053 24.72C94.7986 24.4213 94.7133 24.1333 94.6493 23.856C94.5853 23.5787 94.5533 23.3653 94.5533 23.216C94.5533 22.9173 94.7346 22.64 95.0973 22.384C95.4599 22.128 95.9399 21.8933 96.5373 21.68C97.1346 21.4667 97.7959 21.3067 98.5213 21.2C99.2466 21.072 99.9613 21.008 100.665 21.008C101.924 21.008 102.991 21.1467 103.865 21.424C104.74 21.68 105.444 22.0533 105.977 22.544C106.532 23.0133 106.927 23.5787 107.161 24.24C107.417 24.88 107.545 25.584 107.545 26.352V32.368C107.545 33.4773 107.577 34.3307 107.641 34.928C107.705 35.504 107.769 35.9413 107.833 36.24C107.897 36.5173 107.929 36.7733 107.929 37.008C107.929 37.2 107.78 37.36 107.481 37.488C107.204 37.616 106.852 37.7227 106.425 37.808C106.02 37.8933 105.615 37.9573 105.209 38C104.825 38.0213 104.537 38.032 104.345 38.032C104.004 38.032 103.748 37.9147 103.577 37.68C103.428 37.424 103.321 37.1253 103.257 36.784C103.193 36.4213 103.129 36.1013 103.065 35.824C103.001 35.952 102.777 36.2187 102.393 36.624C102.031 37.008 101.508 37.3813 100.825 37.744C100.164 38.0853 99.3426 38.256 98.3613 38.256ZM99.9293 34.512C100.335 34.512 100.719 34.4267 101.081 34.256C101.465 34.0853 101.807 33.8507 102.105 33.552C102.404 33.232 102.639 32.88 102.809 32.496V30.736C102.041 30.736 101.38 30.7893 100.825 30.896C100.271 31.0027 99.8013 31.152 99.4173 31.344C99.0546 31.536 98.7773 31.7813 98.5853 32.08C98.4146 32.3787 98.3293 32.72 98.3293 33.104C98.3293 33.5093 98.4573 33.8507 98.7133 34.128C98.9906 34.384 99.3959 34.512 99.9293 34.512ZM115.223 44.592C114.561 44.592 114.071 44.528 113.751 44.4C113.452 44.2933 113.303 44.1333 113.303 43.92C113.303 43.8347 113.313 43.7387 113.335 43.632C113.356 43.5467 113.388 43.4507 113.431 43.344L116.023 36.272L116.087 39.792L110.103 22.48C110.081 22.3733 110.049 22.2773 110.007 22.192C109.985 22.0853 109.975 21.9893 109.975 21.904C109.975 21.6693 110.135 21.4987 110.455 21.392C110.775 21.264 111.265 21.2 111.927 21.2H112.983C113.452 21.2 113.847 21.2533 114.167 21.36C114.487 21.4453 114.689 21.616 114.775 21.872L117.591 31.984H117.719L120.471 21.872C120.556 21.616 120.759 21.4453 121.079 21.36C121.399 21.2533 121.793 21.2 122.263 21.2H123.063C123.745 21.2 124.236 21.264 124.535 21.392C124.833 21.4987 124.983 21.6693 124.983 21.904C124.983 21.9893 124.972 22.0853 124.951 22.192C124.951 22.2773 124.929 22.3733 124.887 22.48L117.559 43.92C117.473 44.176 117.271 44.3467 116.951 44.432C116.631 44.5387 116.236 44.592 115.767 44.592H115.223Z" fill="#001F3F"/>
</svg>
